<svg xmlns="http://www.w3.org/2000/svg" width="18" height="20" viewBox="0 0 18 20">
    <g fill="#0488E4" fill-rule="nonzero">
        <path d="M0 6.4v11.981A1.61 1.61 0 0 0 1.6 20H16c.884 0 1.6-.725 1.6-1.619V6.4H0zm4.4 12.4H1.2v-3.2h3.2v3.2zm0-4H1.2v-3.2h3.2v3.2zm0-4H1.2V7.6h3.2v3.2zm4 8H5.2v-3.2h3.2v3.2zm0-4H5.2v-3.2h3.2v3.2zm0-4H5.2V7.6h3.2v3.2zm4 8H9.2v-3.2h3.2v3.2zm0-4H9.2v-3.2h3.2v3.2zm0-4H9.2V7.6h3.2v3.2zm4 8h-3.2v-3.2h3.2v3.2zm0-4h-3.2v-3.2h3.2v3.2zm0-4h-3.2V7.6h3.2v3.2zM16 2.4h-2.6V.6a.6.6 0 0 0-1.2 0v1.8H5.4V.6a.6.6 0 0 0-1.2 0v1.8H1.6C.716 2.4 0 3.125 0 4.019V5.6h17.6V4.019A1.61 1.61 0 0 0 16 2.4zM4.8 5.2a1.2 1.2 0 0 1-.6-2.238V4a.6.6 0 1 0 1.2 0V2.962A1.199 1.199 0 0 1 4.8 5.2zm8 0a1.2 1.2 0 0 1-.6-2.238V4a.6.6 0 1 0 1.2 0V2.962a1.199 1.199 0 0 1-.6 2.238z"/>
    </g>
</svg>
